#!OML:ASF F:\VICON\USERDATA\INSTALL\rory3\rory3.ASF
:FULLY-SPECIFIED
:DEGREES
286
root 1.30826 17.3512 -9.71669 11.4287 -6.76874 -2.54192
lowerback -12.4234 2.81214 5.42957
upperback -4.97191 3.07918 -0.0250679
thorax 2.01535 1.48112 -2.64557
lowerneck -13.986 -2.96069 -6.90531
upperneck 25.6691 -3.74544 4.72035
head 10.79 -1.83029 2.37109
rclavicle 4.37947e-015 -1.06847e-014
rhumerus -39.9896 4.24219 -90.7147
rradius 34.2691
rwrist 2.17613
rhand -24.5292 -48.2789
rfingers 7.12502
rthumb 1.96627 -78.2495
lclavicle 4.37947e-015 -1.06847e-014
lhumerus -46.7938 -0.382798 84.2025
lradius 29.9798
lwrist 9.12208
lhand -32.5064 -29.591
lfingers 7.12502
lthumb -5.73768 0.311323
rfemur -1.31332 10.5966 24.3643
rtibia 33.1729
rfoot -6.76585 1.71061
rtoes -22.4274
lfemur -38.0268 -3.04882 -19.6661
ltibia 34.6105
lfoot -6.90843 2.9614
ltoes 5.56711
287
root 1.32185 17.3515 -9.5677 11.3735 -6.97709 -2.49938
lowerback -12.7835 2.87541 5.50256
upperback -4.82268 3.12617 -0.0547352
thorax 2.37569 1.51445 -2.6915
lowerneck -14.2366 -2.91062 -7.24336
upperneck 25.9127 -3.70457 5.18082
head 10.9432 -1.7877 2.60445
rclavicle 2.23633e-016 -7.95139e-015
rhumerus -40.084 4.1085 -90.6035
rradius 33.7888
rwrist 1.98207
rhand -25.0571 -46.6296
rfingers 7.12502
rthumb 1.45638 -76.6044
lclavicle 2.23633e-016 -7.95139e-015
lhumerus -46.4002 -0.538777 84.2341
lradius 30.1055
lwrist 9.10184
lhand -32.7319 -29.9252
lfingers 7.12502
lthumb -5.95541 -0.0289466
rfemur -2.36191 10.1119 23.9886
rtibia 35.5154
rfoot -5.34998 2.88774
rtoes -22.8001
lfemur -37.5009 -2.7454 -19.947
ltibia 34.7759
lfoot -7.48157 2.86031
ltoes 5.36269
288
root 1.34392 17.3577 -9.41097 11.1327 -7.08328 -2.1633
lowerback -12.602 2.82136 5.30875
upperback -4.88374 3.09302 -0.105199
thorax 2.20462 1.49401 -2.6498
lowerneck -14.0899 -2.9207 -7.31886
upperneck 25.9636 -3.68436 5.07881
head 10.9319 -1.80095 2.58444
rclavicle -1.03617e-014 -2.18663e-014
rhumerus -40.4872 4.16979 -90.5146
rradius 33.8059
rwrist 2.79104
rhand -23.8097 -48.39
rfingers 7.12502
rthumb 2.66113 -78.3531
lclavicle -1.03617e-014 -2.18663e-014
lhumerus -46.4655 -0.613829 84.2941
lradius 30.4736
lwrist 9.06038
lhand -32.5839 -29.8969
lfingers 7.12502
lthumb -5.81252 0.0033435
rfemur -3.22189 9.38381 23.2844
rtibia 37.9279
rfoot -3.95414 3.97337
rtoes -23.1182
lfemur -36.6829 -2.68105 -20.56
ltibia 34.8352
lfoot -8.12442 2.88961
ltoes 5.43106
289
root 1.36601 17.3656 -9.26805 10.8365 -7.04905 -1.62573
lowerback -12.3178 2.68667 4.88713
upperback -4.84576 2.98492 -0.218623
thorax 2.06908 1.44103 -2.55848
lowerneck -14.1691 -2.94241 -7.23905
upperneck 25.9109 -3.69699 4.96288
head 10.925 -1.81152 2.52517
rclavicle 2.38852e-014 2.28602e-014
rhumerus -40.6312 4.3947 -90.6059
rradius 33.5083
rwrist 2.58553
rhand -23.8291 -48.7858
rfingers 7.12502
rthumb 2.64238 -78.7492
lclavicle 2.38852e-014 2.28602e-014
lhumerus -46.2397 -0.73455 84.3823
lradius 30.8879
lwrist 9.08749
lhand -32.8489 -29.3723
lfingers 7.12502
lthumb -6.06829 0.520783
rfemur -4.18122 8.57217 22.4172
rtibia 40.3976
rfoot -2.22728 4.77753
rtoes -22.7426
lfemur -35.8127 -2.71375 -21.3761
ltibia 34.7592
lfoot -8.64181 2.8432
ltoes 5.66968
290
root 1.38039 17.3717 -9.1333 10.5456 -7.0481 -1.14068
lowerback -11.8246 2.53806 4.4059
upperback -4.87093 2.87339 -0.29912
thorax 1.75037 1.38296 -2.40814
lowerneck -14.731 -2.8474 -7.25343
upperneck 26.3052 -3.57464 5.12022
head 11.1787 -1.73304 2.60555
rclavicle -1.01753e-014 -4.37326e-015
rhumerus -41.0566 4.61395 -90.6625
rradius 33.4461
rwrist 2.33434
rhand -23.5636 -48.329
rfingers 7.12502
rthumb 2.8988 -78.289
lclavicle -1.01753e-014 -4.37326e-015
lhumerus -45.8952 -1.05651 84.5828
lradius 31.053
lwrist 9.40106
lhand -33.0759 -29.8561
lfingers 7.12502
lthumb -6.28752 0.0306078
rfemur -5.31269 7.99259 21.6844
rtibia 43.0012
rfoot -0.401618 5.21647
rtoes -21.6889
lfemur -34.9106 -2.63656 -22.1019
ltibia 34.5185
lfoot -9.01985 2.70867
ltoes 5.5488
291
root 1.38982 17.3828 -8.99045 10.2246 -7.25054 -0.708131
lowerback -11.5567 2.46027 3.94696
upperback -4.87683 2.835 -0.363801
thorax 1.58004 1.36492 -2.23351
lowerneck -14.5863 -2.7531 -7.25114
upperneck 26.309 -3.45271 5.12386
head 11.1419 -1.67929 2.62468
rclavicle 1.66482e-015 1.15295e-014
rhumerus -41.6398 4.75947 -90.6495
rradius 33.5406
rwrist 2.43424
rhand -24.0428 -47.1354
rfingers 7.12502
rthumb 2.43604 -77.1012
lclavicle 1.66482e-015 1.15295e-014
lhumerus -45.7298 -1.37454 84.7447
lradius 31.2407
lwrist 9.6815
lhand -32.8336 -30.9857
lfingers 7.12502
lthumb -6.05352 -1.09221
rfemur -6.559 7.76277 21.034
rtibia 45.7424
rfoot 1.57034 5.45329
rtoes -19.305
lfemur -33.8979 -2.54836 -22.7208
ltibia 34.2172
lfoot -9.38151 2.80603
ltoes 5.66752
292
root 1.40529 17.3945 -8.85797 10.1987 -7.33029 -0.0734244
lowerback -11.5853 2.34287 3.35844
upperback -4.94765 2.74517 -0.499919
thorax 1.4978 1.32299 -2.05732
lowerneck -14.1714 -2.72782 -7.25568
upperneck 26.0523 -3.41544 5.04414
head 10.9589 -1.67671 2.59913
rclavicle -4.29996e-014 -3.1408e-014
rhumerus -41.9309 4.9287 -90.6534
rradius 33.4856
rwrist 2.63223
rhand -24.9047 -46.5144
rfingers 7.12502
rthumb 1.60363 -76.4881
lclavicle -4.29996e-014 -3.1408e-014
lhumerus -45.588 -1.52512 84.8213
lradius 31.6548
lwrist 9.80379
lhand -32.7951 -30.5549
lfingers 7.12502
lthumb -6.01635 -0.66031
rfemur -8.25421 7.2498 20.0518
rtibia 48.5478
rfoot 3.42256 5.704
rtoes -16.4492
lfemur -33.2449 -2.53259 -23.5995
ltibia 33.9184
lfoot -9.73581 2.83215
ltoes 6.07715
293
root 1.41243 17.3922 -8.74657 10.2547 -7.24399 0.477743
lowerback -11.339 2.18383 2.6853
upperback -5.04678 2.61731 -0.599724
thorax 1.23093 1.26188 -1.81069
lowerneck -14.4455 -2.7065 -7.21457
upperneck 26.1495 -3.38584 5.06739
head 11.047 -1.65334 2.60495
rclavicle -2.28602e-014 -1.03368e-014
rhumerus -41.9489 4.97298 -90.6285
rradius 33.2001
rwrist 2.99469
rhand -24.8865 -46.5663
rfingers 7.12502
rthumb 1.62121 -76.5399
lclavicle -2.28602e-014 -1.03368e-014
lhumerus -45.1278 -1.77524 84.9097
lradius 31.8756
lwrist 9.89318
lhand -33.1413 -29.5898
lfingers 7.12502
lthumb -6.35062 0.294951
rfemur -10.0777 6.62545 19.2978
rtibia 51.4434
rfoot 5.08665 5.70122
rtoes -14.9397
lfemur -32.8151 -2.41964 -24.3542
ltibia 33.6645
lfoot -10.1018 2.58095
ltoes 6.04907
294
root 1.42509 17.3853 -8.61232 9.98505 -7.67735 1.01139
lowerback -11.2368 2.22587 2.20366
upperback -4.90183 2.72749 -0.756241
thorax 1.31925 1.32389 -1.68905
lowerneck -14.6124 -2.68181 -7.21227
upperneck 26.0982 -3.34179 5.08472
head 11.0578 -1.62832 2.61542
rclavicle -1.81639e-014 -1.39149e-014
rhumerus -41.9637 4.98527 -90.6334
rradius 33.0867
rwrist 3.22311
rhand -24.7297 -47.1451
rfingers 7.12502
rthumb 1.7726 -77.1175
lclavicle -1.81639e-014 -1.39149e-014
lhumerus -44.5587 -2.03686 84.9628
lradius 31.9429
lwrist 9.81864
lhand -33.4433 -29.5263
lfingers 7.12502
lthumb -6.6422 0.34954
rfemur -11.4652 6.38 18.4843
rtibia 54.2492
rfoot 6.36844 5.68808
rtoes -16.1333
lfemur -31.9261 -2.19007 -25.1267
ltibia 33.4223
lfoot -10.549 2.77291
ltoes 5.93622
295
root 1.43469 17.3778 -8.48898 10.0774 -8.32964 1.63853
lowerback -11.5574 2.29242 1.62518
upperback -4.77728 2.87328 -0.95965
thorax 1.61348 1.40433 -1.54171
lowerneck -14.8408 -2.69495 -7.20891
upperneck 26.0528 -3.33504 5.05477
head 11.0852 -1.62536 2.60282
rclavicle -2.28602e-014 -1.33186e-014
rhumerus -41.7839 5.09401 -90.7226
rradius 33.1272
rwrist 3.07551
rhand -24.6068 -48.0076
rfingers 7.12502
rthumb 1.89131 -77.979
lclavicle -2.28602e-014 -1.33186e-014
lhumerus -44.0123 -2.2316 84.9397
lradius 32.3029
lwrist 9.79841
lhand -33.4268 -28.2772
lfingers 7.12502
lthumb -6.62627 1.59915
rfemur -13.4812 6.27551 17.5031
rtibia 57.0635
rfoot 6.83073 5.06527
rtoes -19.4637
lfemur -31.5198 -1.87462 -25.9958
ltibia 33.2482
lfoot -10.9152 3.042
ltoes 6.02062
296
root 1.45034 17.3729 -8.35753 9.79774 -8.17508 2.35998
lowerback -10.8818 2.09513 0.890779
upperback -5.05715 2.69649 -1.07193
thorax 0.921747 1.31837 -1.29964
lowerneck -14.9877 -2.69947 -7.0817
upperneck 26.5027 -3.30834 4.79432
head 11.2762 -1.63425 2.49538
rclavicle -1.38031e-014 -1.43125e-014
rhumerus -42.3943 5.01225 -90.5909
rradius 33.0334
rwrist 3.11399
rhand -24.248 -48.316
rfingers 7.12502
rthumb 2.23783 -78.284
lclavicle -1.38031e-014 -1.43125e-014
lhumerus -44.1622 -2.62058 85.1675
lradius 32.6187
lwrist 9.97233
lhand -33.0056 -25.9567
lfingers 7.12502
lthumb -6.21966 3.93202
rfemur -14.887 5.51268 16.6626
rtibia 59.7339
rfoot 6.67257 3.42315
rtoes -21.3445
lfemur -30.6757 -2.19123 -26.8865
ltibia 33.0936
lfoot -11.3647 3.15685
ltoes 5.9256
297
root 1.46535 17.3655 -8.22887 9.43589 -8.55336 2.81441
lowerback -11.0074 2.14836 0.601639
upperback -4.74082 2.80058 -1.23572
thorax 1.31678 1.3756 -1.28243
lowerneck -15.0238 -2.61152 -6.98305
upperneck 26.2764 -3.19674 4.78781
head 11.1872 -1.57209 2.48829
rclavicle -2.40529e-014 -1.64991e-014
rhumerus -42.1932 4.7181 -90.3823
rradius 32.7817
rwrist 3.44862
rhand -23.9707 -48.1423
rfingers 7.12502
rthumb 2.50569 -78.1074
lclavicle -2.40529e-014 -1.64991e-014
lhumerus -43.3606 -2.99068 85.2097
lradius 32.6533
lwrist 10.1256
lhand -32.5542 -25.7082
lfingers 7.12502
lthumb -5.78386 4.19288
rfemur -16.3043 5.34019 16.0487
rtibia 62.3055
rfoot 5.79039 1.98968
rtoes -22.3406
lfemur -29.7588 -2.22286 -27.5158
ltibia 32.9426
lfoot -11.8108 3.58576
ltoes 5.8741
